<svg width="281" height="280" viewBox="0 0 281 280" fill="none" xmlns="http://www.w3.org/2000/svg">
<path d="M125.889 171.42L119.433 172.172L125.889 171.42C125.747 170.199 125.619 169.099 125.531 168.377C124.679 159.536 124.118 150.084 124.118 139.94C124.118 134.493 124.263 129.284 124.534 124.274C129.661 123.993 134.979 123.831 140.5 123.831C150.872 123.831 160.398 124.342 169.319 125.244L169.38 125.25L169.424 125.254L169.468 125.258L169.529 125.263C171.263 125.415 178.919 126.33 180.474 126.571C180.475 126.571 180.475 126.571 180.475 126.571L180.527 126.579L180.565 126.585L180.604 126.59L180.656 126.598C180.656 126.598 180.656 126.598 180.656 126.598C199.409 129.278 213.455 133.596 222.351 137.911C223.822 138.624 225.086 139.306 226.162 139.94C225.086 140.575 223.822 141.256 222.351 141.97C213.457 146.283 199.309 150.618 180.551 153.299L180.513 153.304L180.475 153.31C179.43 153.472 175.504 153.923 172.252 154.296L172.238 154.298L172.225 154.299L161.793 155.538L156.553 156.161L156.085 161.417L155.439 168.685C155.286 170.399 154.365 177.982 154.123 179.514L154.123 179.515L154.115 179.568L154.109 179.605L154.103 179.642L154.096 179.695L154.095 179.697C151.396 198.261 147.049 212.151 142.713 220.94C141.928 222.531 141.182 223.876 140.494 225.001C139.809 223.88 139.066 222.542 138.284 220.958C133.951 212.182 129.605 198.295 126.905 179.701C126.905 179.701 126.905 179.701 126.905 179.7L126.897 179.647L126.892 179.608L126.885 179.569L126.877 179.515L120.456 180.526L126.877 179.514C126.715 178.49 126.265 174.641 125.889 171.42ZM180.868 39.3264L175.058 42.2406L180.868 39.3264C173.396 24.4302 160.589 8.5 140.5 8.5C120.435 8.5 107.629 24.4409 100.158 39.3204C93.6378 52.3053 88.9706 68.5482 85.9123 85.7241C68.5859 88.7469 52.2025 93.3583 39.1134 99.8116C24.2058 107.161 8 119.864 8 140C8 160.112 24.2164 172.813 39.1074 180.163C52.1952 186.623 68.5786 191.247 85.9107 194.274C88.964 211.444 93.6185 227.687 100.132 240.674C107.603 255.57 120.411 271.5 140.5 271.5C160.565 271.5 173.371 255.559 180.842 240.68C187.362 227.695 192.029 211.452 195.087 194.276C212.414 191.253 228.797 186.642 241.886 180.188C256.794 172.839 273 160.136 273 140C273 119.873 256.807 107.153 241.893 99.7921C228.802 93.3311 212.418 88.7179 195.086 85.7106C192.033 68.5462 187.379 52.309 180.868 39.3264ZM81.3278 139.94C81.3278 143.18 81.3742 146.444 81.4693 149.715C71.875 147.4 64.2361 144.68 58.6489 141.97C57.1733 141.254 55.9065 140.571 54.8283 139.935C55.9016 139.302 57.1621 138.621 58.6301 137.909C64.2149 135.199 71.8581 132.476 81.4699 130.16C81.3744 133.43 81.3278 136.693 81.3278 139.94ZM140.505 54.8799C141.19 56.0002 141.933 57.339 142.715 58.9225C145.418 64.3964 148.135 71.8789 150.455 81.2853C147.126 81.1889 143.804 81.1419 140.5 81.1419C137.186 81.1419 133.865 81.1956 130.547 81.2982C132.866 71.9026 135.583 64.4199 138.286 58.941C139.071 57.3498 139.817 56.005 140.505 54.8799Z" fill="black" stroke="white" stroke-width="13"/>
</svg>
